{"title":"Pyaar Ka Punchnama 2 (2015) pDVDRip - ASD [Show Time]","uid":12586238,"size":1027373060,"categoryP":"video","categoryS":"movies","magnet":"?xt=urn:btih:26f2eb79bb04e8aa61509a5f7deb57821362c803&amp;dn=Pyaar+Ka+Punchnama+2+%282015%29+pDVDRip+-+ASD+%5BShow+Time%5D&amp;tr=udp%3A%2F%2Ftracker.leechers-paradise.org%3A6969&amp;tr=udp%3A%2F%2Fzer0day.ch%3A1337&amp;tr=udp%3A%2F%2Fopen.demonii.com%3A1337&amp;tr=udp%3A%2F%2Ftracker.coppersurfer.tk%3A6969&amp;tr=udp%3A%2F%2Fexodus.desync.com%3A6969","seeders":5,"leechers":1,"uploader":"makintos13","files":1,"time":1445022784,"description":"http://imgmak.com/Ih \nhttp://imgmak.com/Il \nhttp://imgmak.com/IV \nhttp://imgmak.com/Ie \nhttp://imgmak.com/Ig \nhttp://imgmak.com/Io \nhttp://imgmak.com/IN \nhttp://imgmak.com/IQ \nhttp://imgmak.com/IS \nhttp://imgmak.com/IZ\r\n\r\n:::\r\n\r\nINFO:\r\n\r\nFormat : MPEG-PS\r\nFile size : 980 MiB\r\nDuration : 2h 9mn\r\nOverall bit rate mode : Variable\r\nOverall bit rate : 1 061 Kbps\r\nWriting library : encoded by TMPGEnc Video Mastering Works 5 Version. 5.0.5.32\r\n\r\nVideo\r\nID : 224 (0xE0)\r\nFormat : MPEG Video\r\nFormat version : Version 2\r\nFormat profile :   \r\nFormat settings, BVOP : Yes\r\nFormat settings, Matrix : Custom\r\nFormat settings, GOP : M=3, N=18\r\nDuration : 2h 9mn\r\nBit rate mode : Variable\r\nBit rate : 944 Kbps\r\nMaximum bit rate : 8 000 Kbps\r\nWidth : 704 pixels\r\nHeight : 576 pixels\r\nDisplay aspect ratio : 16:9\r\nFrame rate : 25.000 fps\r\nStandard : NTSC\r\nColor space : YUV\r\nChroma subsampling : 4:2:0\r\nBit depth : 8 bits\r\nScan type : Progressive\r\nCompression mode : Lossy\r\nBits/(Pixel*Frame) : 0.093\r\nStream size : 872 MiB (89%)\r\nWriting library : TMPGEnc Video Mastering Works 5 Version. 5.0.5.32\r\n\r\nAudio\r\nID : 192 (0xC0)\r\nFormat : MPEG Audio\r\nFormat version : Version 1\r\nFormat profile : Layer 2\r\nDuration : 2h 9mn\r\nBit rate mode : Constant\r\nBit rate : 96.0 Kbps\r\nChannel(s) : 2 channels\r\nSampling rate : 48.0 KHz\r\nCompression mode : Lossy\r\nStream size : 88.7 MiB (9%)","torrent":{"xt":"urn:btih:26f2eb79bb04e8aa61509a5f7deb57821362c803","amp;dn":"Pyaar+Ka+Punchnama+2+%282015%29+pDVDRip+-+ASD+%5BShow+Time%5D","amp;tr":["udp%3A%2F%2Ftracker.leechers-paradise.org%3A6969","udp%3A%2F%2Fzer0day.ch%3A1337","udp%3A%2F%2Fopen.demonii.com%3A1337","udp%3A%2F%2Ftracker.coppersurfer.tk%3A6969","udp%3A%2F%2Fexodus.desync.com%3A6969"],"infoHash":"26f2eb79bb04e8aa61509a5f7deb57821362c803","infoHashBuffer":{"type":"Buffer","data":[38,242,235,121,187,4,232,170,97,80,154,95,125,235,87,130,19,98,200,3]},"announce":[],"urlList":[]}}